<svg xmlns="http://www.w3.org/2000/svg" viewBox="0 0 233 62"><style type="text/css">
	.st0{fill-rule:evenodd;clip-rule:evenodd;fill:#E20177;}
	.st1{fill-rule:evenodd;clip-rule:evenodd;fill:#A9218E;}
</style><path class="st0" d="M216.6 19.4h-4.5c0-1 0.1-2.1 0.2-3.1 0.2-1.1 0.5-2.2 0.9-3.2h4.5l0.3-1.7c0.2-0.9 0.3-1.8 0.3-2.7 0-0.9 0.1-1.6 0.1-2.2 1.2-0.7 2.4-1.2 3.8-1.4 1.4-0.3 2.8-0.4 4.2-0.4 0.2 0.7 0.3 1.5 0.3 2.2 0 0.7-0.1 1.3-0.1 2-0.1 0.7-0.2 1.5-0.4 2.3l-0.3 1.9h7.2c0 1.1-0.1 2.1-0.3 3.2-0.2 1-0.5 2.1-0.8 3.1h-7.2l-2 11.4c-0.1 0.5-0.1 1-0.2 1.5-0.1 0.4-0.1 0.9-0.1 1.3 0 0.8 0.2 1.7 0.7 2.4 0.7 0.7 1.7 1 2.6 0.9 0.6 0 1.2 0 1.7-0.1 0.5-0.1 1-0.2 1.4-0.3 0.6 1.4 0.8 2.9 0.8 4.4v0.9c0 0.3 0 0.6-0.1 0.9-1.9 0.5-4 0.8-6 0.8-3.2 0-5.7-0.6-7.2-1.8s-2.4-3.2-2.4-6c0-0.6 0-1.2 0.1-1.8 0.1-0.6 0.2-1.3 0.3-2L216.6 19.4zM195.5 25.8c1.2-0.2 2.4-0.5 3.6-0.9 0.8-0.3 1.5-0.7 2.2-1.2 0.5-0.4 0.8-0.8 1.1-1.4 0.2-0.4 0.3-0.9 0.3-1.4 0-0.7-0.2-1.3-0.7-1.8-0.5-0.5-1.2-0.7-1.9-0.7-1 0-1.9 0.2-2.8 0.7-0.8 0.4-1.6 1-2.2 1.8-0.6 0.8-1.2 1.6-1.6 2.5-0.4 0.9-0.8 1.9-1 2.9L195.5 25.8zM192.2 31.7c0.1 1.6 0.8 3 1.9 4.1 1.2 1 2.8 1.5 4.4 1.4 1.4 0 2.8-0.1 4.1-0.5 1.3-0.4 2.5-0.8 3.7-1.3 0.6 0.8 1.1 1.8 1.2 2.8 0.2 1.2 0.3 2.3 0.3 3.5-0.7 0.3-1.5 0.6-2.3 0.8-0.9 0.3-1.8 0.5-2.7 0.6-0.9 0.2-1.9 0.3-2.8 0.4-0.8 0.1-1.7 0.1-2.5 0.1-2.1 0-4.1-0.2-6.1-0.9-1.6-0.5-3-1.3-4.2-2.5-1.1-1.1-1.9-2.4-2.4-3.9-0.5-1.6-0.8-3.3-0.8-5.1 0-2.4 0.4-4.7 1.2-6.9 0.8-2.2 2-4.3 3.5-6.1 1.5-1.8 3.4-3.3 5.5-4.3 2.2-1.1 4.7-1.7 7.2-1.6 1.2 0 2.4 0.1 3.6 0.5 1 0.3 2 0.8 2.9 1.4 0.8 0.6 1.5 1.4 1.9 2.3 0.5 1 0.7 2.1 0.7 3.2 0 1.6-0.4 3.2-1.2 4.5-0.8 1.3-1.9 2.4-3.2 3.2-1.4 0.9-3 1.7-4.6 2.2-1.8 0.6-3.5 1-5.4 1.2L192.2 31.7zM174.8 7.9c-0.1-1.2 0-2.5 0.2-3.7 0.2-1.3 0.6-2.5 1-3.7 0.8-0.2 1.5-0.3 2.3-0.4 0.7-0.1 1.3-0.1 2-0.1 0.6 0 1.3 0.1 1.9 0.1 0.7 0.1 1.4 0.2 2.1 0.4 0 1.2-0.1 2.3-0.3 3.5-0.2 1.3-0.6 2.6-1 3.8-0.8 0.2-1.5 0.3-2.3 0.4-0.8 0.1-1.4 0.1-2 0.1-0.6 0-1.2 0-2-0.1C176.2 8.2 175.5 8.1 174.8 7.9zM173.1 19.4h-3.7c0-0.1 0-0.3 0-0.4 0-0.1 0-0.3 0-0.4 0-0.9 0.1-1.8 0.3-2.7 0.2-0.9 0.5-1.8 0.8-2.7h11.7l-7.5 38.4c-0.7 3.7-2.1 6.4-4.5 8-2.5 1.7-5.5 2.6-8.6 2.5-1.7 0-3.4-0.2-5.1-0.6 0-0.2-0.1-0.4-0.1-0.7v-0.6c0-1.7 0.4-3.3 1.2-4.8 0.5 0.1 1 0.2 1.5 0.3 0.5 0.1 1 0.1 1.5 0.1 0.7 0 1.3-0.1 2-0.2 0.6-0.1 1.2-0.4 1.8-0.8 0.6-0.5 1.1-1 1.4-1.7 0.5-0.9 0.8-1.9 1-2.9L173.1 19.4zM149.5 37.5c1.4 0 2.7-0.5 3.7-1.4 1-1 1.9-2.1 2.5-3.4 0.6-1.4 1.1-2.8 1.4-4.3 0.3-1.4 0.4-2.7 0.4-4.1 0-3.6-1.5-5.3-4.4-5.3-1.4 0-2.7 0.5-3.7 1.4-1 1-1.8 2.2-2.4 3.5-0.6 1.4-1.1 2.9-1.3 4.4-0.2 1.4-0.4 2.7-0.4 4.1C145.4 35.8 146.7 37.5 149.5 37.5L149.5 37.5zM148.7 43.8c-4 0-6.9-1-8.8-3.1s-2.8-4.9-2.8-8.6c0-2.4 0.4-4.7 1-7 0.7-2.3 1.7-4.4 3.1-6.3 1.4-1.9 3.2-3.4 5.3-4.6 2.3-1.2 4.8-1.8 7.4-1.8 4 0 7 1.1 8.9 3.2 1.9 2.1 2.8 5 2.8 8.6 0 2.4-0.3 4.8-1 7.1-0.6 2.3-1.7 4.4-3.1 6.3-1.4 1.9-3.2 3.4-5.3 4.5C153.9 43.2 151.3 43.8 148.7 43.8L148.7 43.8zM110 12c0.6-3 0.9-6.1 1-9.2 0-0.4 0-0.8 0-1.1s0-0.6-0.1-1c0.7-0.1 1.5-0.2 2.3-0.3 0.9-0.1 1.6-0.1 2.2-0.1 1.2 0 2.5 0.1 3.7 0.3 0.2 0.7 0.3 1.5 0.3 2.2 0 2.1-0.3 4.2-0.7 6.2l-1.5 8c0.5-0.6 1-1.2 1.5-1.7 0.6-0.6 1.2-1.1 1.9-1.5 0.8-0.5 1.7-0.9 2.6-1.1 1.1-0.3 2.2-0.4 3.4-0.4 2.4-0.1 4.7 0.9 6.2 2.8 1.5 1.9 2.2 4.5 2.2 8 0 2.4-0.4 4.9-1 7.2-0.7 2.4-1.9 4.7-3.5 6.6-1.8 2.1-4 3.7-6.5 4.8-3.2 1.3-6.6 2-10 1.9-3.2 0-6.3-0.6-9.3-1.7L110 12zM113.8 36.6c0.4 0.1 0.8 0.2 1.2 0.3 0.5 0.1 1 0.1 1.5 0.1 1.5 0 3.1-0.4 4.4-1.2 1.2-0.8 2.2-1.8 3-3 0.8-1.2 1.4-2.6 1.7-4 0.4-1.4 0.5-2.8 0.6-4.3 0-1.2-0.3-2.4-0.8-3.5-0.6-1-1.7-1.6-2.9-1.5-1.8 0-3.5 0.8-4.6 2.3-1.3 1.5-2.2 4-2.8 7.5L113.8 36.6zM59.2 26c0.4-2.4 0.7-4.6 1-6.5 0.2-1.4 0.3-2.9 0.3-4.4v-1.1c0-0.3 0-0.6-0.1-1 1.3-0.2 2.5-0.3 3.8-0.3 0.6 0 1.2 0 1.7 0.1 0.6 0.1 1.2 0.1 1.9 0.3 0.1 0.3 0.2 0.7 0.2 1.1 0.1 0.6 0.1 1.3 0.1 1.9 0 0.3 0 0.7 0 1 0 0.3-0.1 0.8-0.1 1.3 0.9-1.7 2.3-3.2 4-4.2 1.7-1.1 3.8-1.8 5.8-1.7 1.7-0.1 3.4 0.4 4.8 1.4 1.3 1.2 2 2.8 2.1 4.5 1-1.7 2.4-3.1 4.1-4.1 1.7-1.1 3.7-1.7 5.8-1.7 1.9-0.1 3.8 0.5 5.3 1.7 1.2 1.1 1.8 3 1.8 5.7 0 1.4-0.1 2.8-0.4 4.2l-3.4 19c-1.4 0.2-2.8 0.3-4.2 0.3-1.3 0-2.7-0.1-4-0.3l3.2-18.3c0.1-0.8 0.2-1.7 0.2-2.5 0.1-0.8-0.1-1.6-0.6-2.2-0.5-0.5-1.3-0.7-2-0.6-0.6 0-1.2 0.2-1.8 0.4-0.8 0.4-1.4 0.9-1.9 1.6-0.8 1-1.4 2-1.9 3.2-0.7 1.7-1.2 3.5-1.5 5.3l-2.3 13.3c-1.4 0.2-2.8 0.3-4.2 0.3-1.3 0-2.7-0.1-4-0.3l3.2-18.3c0.1-0.8 0.2-1.7 0.2-2.5 0.1-0.8-0.1-1.6-0.6-2.2-0.5-0.5-1.3-0.7-2-0.6-0.6 0-1.2 0.2-1.8 0.4-0.8 0.4-1.5 1-2 1.7-0.8 1.1-1.4 2.4-1.9 3.7-0.7 2-1.3 4.1-1.6 6.2l-2.1 11.6c-1.4 0.2-2.8 0.3-4.2 0.3-1.3 0-2.7-0.1-4-0.3L59.2 26zM51.5 30.1c-0.4 2.4-0.7 4.6-0.9 6.5-0.2 1.9-0.3 3.3-0.3 4.4V42c0 0.3 0 0.6 0.1 1-1.2 0.2-2.5 0.3-3.8 0.3-1.2 0-2.4-0.1-3.6-0.3-0.1-0.3-0.2-0.7-0.2-1.1-0.1-0.6-0.1-1.3-0.1-1.9v-1.1c0-0.4 0-0.9 0.1-1.3-1.1 1.8-2.6 3.3-4.3 4.5-1.8 1.2-3.9 1.8-6.1 1.8-2.2 0.2-4.3-0.7-5.7-2.4-1.4-1.9-2-4.1-1.9-6.4 0-2.8 0.4-5.7 1.3-8.4 0.8-2.6 2.1-5.1 3.9-7.2 1.8-2.1 3.9-3.8 6.4-5 2.8-1.3 5.9-2 8.9-1.9 1.6 0 3.2 0.1 4.8 0.3 1.5 0.2 2.9 0.6 4.4 1L51.5 30.1zM45.5 19.3c-0.3-0.1-0.7-0.1-1-0.1-0.3 0-0.6 0-1 0-1.7-0.1-3.3 0.4-4.7 1.4-1.3 0.9-2.4 2.1-3.2 3.5-0.9 1.4-1.5 2.9-1.9 4.5-0.4 1.4-0.6 2.9-0.6 4.4 0 2.9 0.9 4.3 2.8 4.3 1.9 0 3.6-1.1 5.2-3.4 1.8-2.9 3-6.1 3.5-9.5L45.5 19.3zM15.3 8.6H8.8c0-0.5 0.1-1.1 0.1-1.8C9 6.2 9.1 5.6 9.2 5c0.1-0.6 0.2-1.2 0.3-1.8C9.7 2.6 9.8 2 10 1.4h15L19.7 32c-0.8 4.2-2.4 7.3-4.7 9.1-2.7 1.9-6 2.8-9.3 2.7-1 0-1.9-0.1-2.9-0.2C1.8 43.4 0.9 43.2 0 43c0-1 0.1-2.2 0.3-3.4 0.1-1.2 0.5-2.5 1.1-3.6 0.4 0.1 1 0.2 1.7 0.3 0.7 0.1 1.4 0.2 2.1 0.2 0.7 0 1.3 0 2-0.1C7.8 36.3 8.4 36 9 35.7c0.6-0.4 1.1-1 1.5-1.7 0.5-1 0.8-2.1 1-3.2L15.3 8.6z"/><path class="st1" d="M209.5 53.6c0.2-1 0.3-1.9 0.4-2.7 0.1-0.6 0.1-1.2 0.1-1.8v-0.4c0-0.1 0-0.3 0-0.4 0.5-0.1 1-0.1 1.6-0.1 0.2 0 0.5 0 0.7 0 0.2 0 0.5 0.1 0.8 0.1 0 0.1 0.1 0.3 0.1 0.5 0 0.3 0.1 0.5 0 0.8 0 0.1 0 0.3 0 0.4 0 0.1 0 0.3-0.1 0.5 0.4-0.7 1-1.3 1.6-1.8 0.7-0.5 1.5-0.7 2.4-0.7 0.7 0 1.4 0.2 2 0.6 0.5 0.5 0.8 1.2 0.8 1.9 0.4-0.7 1-1.3 1.7-1.7 0.7-0.5 1.5-0.7 2.4-0.7 0.8-0.1 1.6 0.2 2.2 0.7 0.6 0.7 0.8 1.5 0.7 2.4 0 0.6-0.1 1.2-0.2 1.7l-1.4 7.9c-0.6 0.1-1.2 0.1-1.7 0.1-0.6 0-1.1 0-1.6-0.1l1.3-7.6c0.1-0.3 0.1-0.7 0.1-1 0-0.3-0.1-0.7-0.3-0.9-0.2-0.2-0.5-0.3-0.8-0.3-0.3 0-0.5 0.1-0.7 0.2-0.3 0.2-0.6 0.4-0.8 0.6-0.3 0.4-0.6 0.8-0.8 1.3-0.3 0.7-0.5 1.4-0.6 2.2l-1 5.5c-0.6 0.1-1.2 0.1-1.7 0.1-0.6 0-1.1 0-1.6-0.1l1.3-7.6c0.1-0.3 0.1-0.7 0.1-1 0-0.3-0.1-0.7-0.3-0.9-0.2-0.2-0.5-0.3-0.8-0.3-0.3 0-0.5 0.1-0.7 0.2-0.3 0.2-0.6 0.4-0.8 0.7-0.3 0.5-0.6 1-0.8 1.5-0.3 0.8-0.5 1.7-0.7 2.6l-0.9 4.8c-0.6 0.1-1.2 0.1-1.7 0.1-0.6 0-1.1 0-1.6-0.1L209.5 53.6zM200.1 58.4c0.6 0 1.1-0.2 1.5-0.6 0.4-0.4 0.8-0.9 1-1.4 0.3-0.6 0.5-1.2 0.6-1.8 0.1-0.6 0.2-1.1 0.2-1.7 0-1.5-0.6-2.2-1.8-2.2-0.6 0-1.1 0.2-1.5 0.6-0.4 0.4-0.7 0.9-1 1.5-0.3 0.6-0.4 1.2-0.5 1.8-0.1 0.6-0.1 1.1-0.2 1.7C198.4 57.7 199 58.4 200.1 58.4zM199.8 61c-1.3 0.1-2.7-0.4-3.6-1.3-0.8-1-1.2-2.3-1.2-3.6 0-1 0.1-2 0.4-2.9 0.3-0.9 0.7-1.8 1.3-2.6 0.6-0.8 1.3-1.4 2.2-1.9 0.9-0.5 2-0.8 3-0.7 1.3-0.1 2.7 0.4 3.6 1.3 0.8 1 1.2 2.3 1.2 3.6 0 1-0.1 2-0.4 2.9-0.3 0.9-0.7 1.8-1.3 2.6-0.6 0.8-1.3 1.4-2.2 1.9C201.9 60.8 200.9 61 199.8 61zM192.2 57.8c0.2 0.3 0.3 0.7 0.4 1 0.1 0.5 0.2 1.1 0.2 1.6-0.5 0.2-1.1 0.4-1.6 0.5-0.6 0.1-1.3 0.1-1.9 0.1-1.5 0.1-2.9-0.4-4-1.3-0.9-1-1.3-2.3-1.3-3.7 0-1 0.2-1.9 0.5-2.8 0.3-0.9 0.8-1.8 1.4-2.6 0.6-0.8 1.4-1.4 2.2-1.9 0.9-0.5 2-0.7 3.1-0.7 0.5 0 1.1 0 1.6 0.1 0.5 0.1 1 0.2 1.5 0.4 0 0.5-0.1 0.9-0.2 1.3-0.1 0.5-0.3 0.9-0.6 1.4-0.3-0.1-0.7-0.3-1-0.3-0.4-0.1-0.8-0.1-1.1-0.1-0.6 0-1.1 0.1-1.6 0.4-0.5 0.3-0.9 0.7-1.2 1.1-0.3 0.5-0.6 1-0.7 1.6-0.2 0.6-0.2 1.2-0.2 1.8-0.1 0.7 0.2 1.4 0.7 1.9 0.5 0.4 1.1 0.6 1.7 0.6 0.3 0 0.7 0 1-0.1C191.4 58.1 191.8 57.9 192.2 57.8zM177.6 57.2c0.3-0.1 0.6-0.1 0.9-0.1 0.3 0 0.6 0 0.9 0 0.3 0 0.6 0 0.8 0 0.3 0 0.6 0.1 0.9 0.1 0 0.6 0 1.2-0.2 1.8-0.1 0.6-0.3 1.2-0.4 1.7-0.3 0.1-0.6 0.1-0.9 0.1-0.3 0-0.6 0-0.9 0-0.3 0-0.6 0-0.8 0-0.3 0-0.6-0.1-0.9-0.1 0-0.6 0-1.2 0.2-1.8C177.3 58.3 177.4 57.8 177.6 57.2z"/></svg>
